<svg width="239" height="272" viewBox="0 0 239 272" fill="none" xmlns="http://www.w3.org/2000/svg">
<path d="M234.159 237.457C234.884 235.111 251.625 185.997 255.139 167.032C255.162 166.916 255.138 166.795 255.072 166.697C255.006 166.598 254.904 166.53 254.787 166.507C254.671 166.484 254.551 166.508 254.452 166.574C254.354 166.64 254.285 166.742 254.262 166.858C253.357 170.48 239.389 213.248 233.355 237.132C233.315 237.187 233.289 237.25 233.277 237.317C233.265 237.384 233.269 237.452 233.288 237.518C233.306 237.583 233.34 237.643 233.385 237.693C233.431 237.743 233.487 237.783 233.55 237.808C233.612 237.833 233.68 237.844 233.748 237.839C233.815 237.835 233.881 237.815 233.94 237.781C233.998 237.747 234.049 237.7 234.087 237.644C234.125 237.588 234.149 237.524 234.159 237.457ZM75.4681 119.381C77.1384 121.341 78.9436 123.182 80.8707 124.89C81.2109 125.099 81.6176 125.173 82.0098 125.097C87.0543 124.395 128.923 112.476 136.313 107.668C137.339 107.016 138.274 106.102 137.77 105.024C134.004 97.1397 132.342 88.4144 132.947 79.6974C133.704 72.7294 135.527 65.919 138.352 59.5048C140.318 54.2568 140.238 53.1346 137.875 49.6137C134.637 45.2442 132.195 40.3383 130.66 35.1209C128.835 28.5312 127.878 21.7313 127.814 14.8936C127.792 14.577 127.666 14.2765 127.454 14.0401C127.242 13.8036 126.958 13.6447 126.645 13.5886C124.073 13.3986 121.487 13.5392 118.95 14.0071C119.084 12.9566 119.291 11.8175 118.385 11.3821C115.87 10.1727 73.5833 16.843 64.6706 20.0514C63.7394 20.3779 62.4741 20.8843 62.1253 21.7384C56.7828 34.6529 62.7648 52.6098 69.7169 64.6851C65.5089 72.6639 62.252 77.5699 61.7001 88.7002C61.3319 96.568 62.5923 104.427 65.4023 111.785C65.8192 112.915 68.7848 120.658 69.1761 120.939C69.5674 121.22 69.64 121.069 75.4681 119.381ZM123.138 18.436C119.881 29.7829 125.391 40.6696 132.503 50.1586C135.676 54.3785 135.974 54.274 134.811 56.5638C132.637 60.4999 130.837 64.6316 129.435 68.9045C128.459 72.0633 127.79 75.3092 127.438 78.5967C126.63 86.0736 130.354 96.8757 133.862 103.362C133.933 103.498 133.975 103.648 133.984 103.801C133.993 103.954 133.969 104.107 133.915 104.251C133.861 104.394 133.777 104.525 133.668 104.633C133.56 104.742 133.43 104.827 133.287 104.881C120.931 109.004 99.1877 116.356 87.1914 119.537C86.6448 119.708 86.3817 118.838 86.9535 118.679C94.2453 116.395 112.134 110.039 131.502 103.311C128.01 96.2129 124.484 86.1567 125.349 78.3045C125.804 74.0144 126.791 69.7977 128.288 65.7518C129.756 61.9944 131.506 58.3537 133.524 54.8611C132.528 52.5548 116.642 35.8744 122.485 18.184C122.544 18.1524 122.61 18.1346 122.677 18.1319C122.744 18.1292 122.81 18.1416 122.872 18.1683C122.934 18.1949 122.988 18.2351 123.032 18.2858C123.076 18.3365 123.108 18.3964 123.126 18.4612L123.138 18.436ZM64.1505 22.7432C70.0904 19.4059 110.242 13.5052 116.831 13.3908C116.073 18.7218 115.855 24.1158 116.181 29.4906C116.263 34.4712 117.456 39.3707 119.671 43.8323C121.886 48.2938 125.069 52.205 128.987 55.2808C109.957 57.2476 87.726 62.0725 71.8021 64.7277C71.7171 64.0675 57.2102 39.6891 64.1505 22.7432ZM63.3495 88.812C64.0663 77.8539 67.3644 73.1844 71.3436 65.7459C87.8492 64.3923 112.527 59.567 128.717 56.3584C122.804 63.6618 119.827 72.9073 120.368 82.2885C120.742 87.9496 124.167 96.2848 126.306 101.432C120.11 104.399 77.0319 117.996 69.849 120.055C65.3656 109.414 62.5649 100.233 63.2489 88.7636L63.3495 88.812ZM105.179 165.593C104.444 166.005 103.844 166.621 103.452 167.367C103.061 168.114 102.894 168.957 102.972 169.796C102.956 170.372 103.053 170.945 103.258 171.483C103.463 172.021 103.772 172.514 104.167 172.933C104.562 173.351 105.036 173.688 105.562 173.923C106.087 174.159 106.654 174.289 107.23 174.305C107.805 174.322 108.379 174.225 108.917 174.02C109.455 173.815 109.947 173.506 110.366 173.11C110.785 172.715 111.121 172.241 111.357 171.716C111.592 171.19 111.722 170.623 111.739 170.048C111.937 169.211 111.877 168.334 111.565 167.532C111.254 166.73 110.706 166.042 109.994 165.559C109.283 165.076 108.441 164.821 107.581 164.827C106.721 164.833 105.884 165.1 105.179 165.593ZM109.411 169.672C109.118 171.698 108.057 172.489 106.996 172.505C104.823 172.451 102.565 170.127 104.628 167.898C106.19 166.389 109.997 166.392 109.537 169.732L109.411 169.672ZM51.5805 -17.6425C53.4152 -17.6584 54.4945 -21.3199 54.7301 -23.0336C54.8535 -23.9343 54.8187 -24.5703 54.1004 -25.0086C52.3229 -26.142 36.0953 -34.2542 34.0996 -34.161C33.8909 -34.1525 33.6894 -34.0826 33.5203 -33.9601C33.3512 -33.8376 33.2221 -33.6679 33.1491 -33.4722C31.8513 -30.7923 30.9575 -27.9349 30.4966 -24.9932C30.6295 -23.6596 49.4852 -17.5352 51.5805 -17.6425ZM31.3542 -25.2311C32.1389 -27.7143 33.1593 -30.1167 34.4013 -32.4056C36.3351 -31.6616 52.2638 -23.5073 52.5032 -23.3612C52.373 -22.1155 51.965 -20.9148 51.3093 -19.8477C50.6461 -19.9498 48.9416 -20.3978 46.7984 -20.9638C41.5778 -22.1095 36.4224 -23.5339 31.3542 -25.2311ZM82.778 157.826C83.0176 157.644 83.2106 157.408 83.3409 157.137C83.4713 156.866 83.5353 156.567 83.5278 156.267C83.3956 155.007 82.8904 153.815 82.0768 152.844C81.9411 152.7 81.7704 152.593 81.5814 152.535C81.3924 152.477 81.1914 152.468 80.9982 152.511C78.9841 153.029 57.3801 158.868 57.5618 160.937C57.891 163.528 58.4189 166.091 59.1408 168.602C59.1701 168.703 59.2203 168.797 59.2882 168.878C59.3561 168.958 59.4402 169.024 59.535 169.07C60.8187 169.749 79.5777 160.746 82.778 157.826ZM58.3609 160.95C60.5768 159.754 71.1978 157.244 80.7209 154.762C80.9908 155.196 81.1918 155.668 81.3168 156.163C74.559 160.337 67.522 164.041 60.2557 167.249C59.4792 165.195 58.846 163.091 58.3609 160.95ZM21.8753 94.7582C12.3825 89.5126 10.5884 81.6515 12.2855 75.1594C17.6625 79.8195 25.844 83.4128 29.814 77.7968C31.6947 75.109 30.8749 72.9497 30.1302 69.9904C26.9262 57.333 15.8736 60.9989 11.504 71.4393C2.91733 62.6347 -1.33814 49.7813 3.98447 38.003C4.03578 37.8963 4.0426 37.7736 4.00342 37.6618C3.96423 37.5501 3.88227 37.4584 3.77554 37.4071C3.66881 37.3558 3.54606 37.349 3.4343 37.3882C3.32255 37.4274 3.23093 37.5093 3.17961 37.6161C-3.11864 50.0709 1.18321 64.3091 10.6269 73.6497C8.55496 80.9215 10.3805 90.0054 21.3374 95.4905C21.3855 95.5258 21.4401 95.5513 21.498 95.5655C21.5559 95.5797 21.6161 95.5824 21.6751 95.5734C21.7341 95.5644 21.7907 95.5438 21.8417 95.5129C21.8927 95.482 21.9372 95.4413 21.9725 95.3933C22.0078 95.3452 22.0333 95.2906 22.0476 95.2327C22.0618 95.1747 22.0645 95.1145 22.0554 95.0556C22.0464 94.9966 22.0259 94.94 21.995 94.8889C21.964 94.8379 21.9234 94.7935 21.8753 94.7582ZM13.0116 72.8764C14.562 69.0079 18.4037 63.9805 22.5369 64.0789C24.8968 64.1298 26.863 66.1589 27.9791 70.5355C28.4203 71.7901 28.6761 73.1023 28.7384 74.4307C28.5341 78.9774 21.8735 80.9153 13.0116 72.8764ZM372.189 236.721C370.37 238.838 368.993 241.297 368.138 243.955C367.284 246.612 366.969 249.413 367.213 252.194C367.457 254.975 368.255 257.678 369.56 260.146C370.865 262.614 372.65 264.796 374.81 266.563C379.353 270.123 385.123 271.732 390.852 271.037C396.581 270.343 401.8 267.4 405.36 262.858C408.919 258.315 410.529 252.545 409.834 246.816C409.139 241.087 406.197 235.868 401.654 232.309C399.434 230.653 396.908 229.454 394.221 228.779C391.535 228.105 388.742 227.969 386.003 228.379C383.264 228.789 380.633 229.738 378.262 231.169C375.892 232.601 373.828 234.488 372.189 236.721ZM396.425 238.805C399.965 241.75 402.334 245.864 403.105 250.403C403.875 254.942 402.997 259.607 400.627 263.555C397.321 266.635 393.035 268.451 388.523 268.683C384.01 268.915 379.561 267.548 375.957 264.823C372.287 261.899 369.791 257.753 368.927 253.141C368.063 248.529 368.887 243.76 371.249 239.706C374.674 236.637 379.071 234.874 383.667 234.727C388.263 234.581 392.764 236.061 396.376 238.906L396.425 238.805Z" fill="#D0D0D0"/>
</svg>
