<svg width="49" height="48" viewBox="0 0 49 48" fill="none" xmlns="http://www.w3.org/2000/svg">
<g clip-path="url(#clip0_5809_29647)">
<rect x="0.5" width="48" height="48" rx="12" fill="white"/>
<rect x="0.5" width="48" height="48" rx="12" fill="url(#paint0_linear_5809_29647)"/>
<path fill-rule="evenodd" clip-rule="evenodd" d="M24.4997 3.05791C12.9339 3.05791 3.55791 12.4339 3.55791 23.9997C3.55791 35.5655 12.9339 44.9414 24.4997 44.9414C36.0655 44.9414 45.4414 35.5655 45.4414 23.9997C45.4414 12.4339 36.0655 3.05791 24.4997 3.05791ZM3.44141 23.9997C3.44141 12.3695 12.8695 2.94141 24.4997 2.94141C36.1298 2.94141 45.5579 12.3695 45.5579 23.9997C45.5579 35.6298 36.1298 45.0579 24.4997 45.0579C12.8695 45.0579 3.44141 35.6298 3.44141 23.9997Z" fill="#FF6847"/>
<path fill-rule="evenodd" clip-rule="evenodd" d="M24.5 18.1165C21.2506 18.1165 18.6165 20.7506 18.6165 24C18.6165 27.2494 21.2506 29.8835 24.5 29.8835C27.7494 29.8835 30.3835 27.2494 30.3835 24C30.3835 20.7506 27.7494 18.1165 24.5 18.1165ZM18.5 24C18.5 20.6863 21.1863 18 24.5 18C27.8137 18 30.5 20.6863 30.5 24C30.5 27.3137 27.8137 30 24.5 30C21.1863 30 18.5 27.3137 18.5 24Z" fill="#FF6847"/>
<path fill-rule="evenodd" clip-rule="evenodd" d="M24.4992 19.9798C22.2793 19.9798 20.4798 21.7793 20.4798 23.9992C20.4798 26.2191 22.2793 28.0186 24.4992 28.0186C26.7191 28.0186 28.5186 26.2191 28.5186 23.9992C28.5186 21.7793 26.7191 19.9798 24.4992 19.9798ZM20.3633 23.9992C20.3633 21.715 22.215 19.8633 24.4992 19.8633C26.7834 19.8633 28.6351 21.715 28.6351 23.9992C28.6351 26.2834 26.7834 28.1351 24.4992 28.1351C22.215 28.1351 20.3633 26.2834 20.3633 23.9992Z" fill="#FF6847"/>
<path d="M24.4414 0H24.5579V48H24.4414V0Z" fill="#FF6847"/>
<path d="M48.5 23.9414L48.5 24.0579L0.5 24.0579L0.5 23.9414L48.5 23.9414Z" fill="#FF6847"/>
<path d="M40.4023 0H40.5188V48H40.4023V0Z" fill="#FF6847"/>
<path d="M16.4609 0H16.5774V48H16.4609V0Z" fill="#FF6847"/>
<path d="M32.4219 0H32.5384V48H32.4219V0Z" fill="#FF6847"/>
<path d="M8.48047 0H8.59697V48H8.48047V0Z" fill="#FF6847"/>
<path d="M48.5 39.9023L48.5 40.0188L0.5 40.0188L0.5 39.9023L48.5 39.9023Z" fill="#FF6847"/>
<path d="M48.5 15.9609L48.5 16.0774L0.5 16.0774L0.5 15.9609L48.5 15.9609Z" fill="#FF6847"/>
<path d="M48.5 31.9219L48.5 32.0384L0.5 32.0384L0.5 31.9219L48.5 31.9219Z" fill="#FF6847"/>
<path d="M48.5 7.98047L48.5 8.09697L0.5 8.09697L0.5 7.98047L48.5 7.98047Z" fill="#FF6847"/>
<path d="M36.1673 16.9993C36.1673 15.716 35.1173 14.666 33.834 14.666H15.1673C13.884 14.666 12.834 15.716 12.834 16.9993M36.1673 16.9993V30.9994C36.1673 32.2827 35.1173 33.3327 33.834 33.3327H15.1673C13.884 33.3327 12.834 32.2827 12.834 30.9994V16.9993M36.1673 16.9993L24.5007 25.166L12.834 16.9993" stroke="#FF502A" stroke-width="2.33333" stroke-linecap="round" stroke-linejoin="round"/>
</g>
<rect x="0.65" y="0.15" width="47.7" height="47.7" rx="11.85" stroke="#FF6847" stroke-width="0.3"/>
<defs>
<linearGradient id="paint0_linear_5809_29647" x1="24.5" y1="0" x2="24.5" y2="48" gradientUnits="userSpaceOnUse">
<stop stop-color="white"/>
<stop offset="1" stop-color="#E1E4E8"/>
</linearGradient>
<clipPath id="clip0_5809_29647">
<rect x="0.5" width="48" height="48" rx="12" fill="white"/>
</clipPath>
</defs>
</svg>
